<svg xmlns="http://www.w3.org/2000/svg" xmlns:xlink="http://www.w3.org/1999/xlink" preserveAspectRatio="xMidYMid" width="32" height="33" viewBox="0 0 32 33">
  <defs>
    <style>

      .cls-2 {
        fill: #000000;
        filter: url(#color-overlay-1);
      }
    </style>

    <filter id="color-overlay-1" filterUnits="userSpaceOnUse">
      <feFlood flood-color="#00aded" flood-opacity="1"/>
      <feComposite operator="in" in2="SourceGraphic"/>
      <feBlend mode="normal" in2="SourceGraphic" result="colorOverlay"/>
    </filter>
  </defs>
  <path d="M6.003,-0.003 C4.349,-0.003 2.935,0.584 1.761,1.758 C0.587,2.932 -0.000,4.346 -0.000,5.999 C-0.000,5.999 -0.000,26.008 -0.000,26.008 C-0.000,27.662 0.587,29.075 1.761,30.249 C2.935,31.423 4.349,32.010 6.003,32.010 C6.003,32.010 17.091,32.010 17.091,32.010 C17.091,32.010 17.091,19.609 17.091,19.609 C17.091,19.609 12.922,19.609 12.922,19.609 C12.922,19.609 12.922,14.774 12.922,14.774 C12.922,14.774 17.091,14.774 17.091,14.774 C17.091,14.774 17.091,11.210 17.091,11.210 C17.091,9.181 17.657,7.611 18.789,6.499 C19.922,5.388 21.433,4.832 23.323,4.832 C24.920,4.832 26.157,4.894 27.033,5.019 C27.033,5.019 27.033,9.334 27.033,9.334 C27.033,9.334 24.490,9.355 24.490,9.355 C23.545,9.355 22.909,9.550 22.583,9.938 C22.256,10.327 22.093,10.911 22.093,11.689 C22.093,11.689 22.093,14.774 22.093,14.774 C22.093,14.774 26.866,14.774 26.866,14.774 C26.866,14.774 26.241,19.609 26.241,19.609 C26.241,19.609 22.093,19.609 22.093,19.609 C22.093,19.609 22.093,32.010 22.093,32.010 C22.093,32.010 26.011,32.010 26.011,32.010 C27.665,32.010 29.078,31.423 30.253,30.249 C31.427,29.075 32.014,27.662 32.014,26.008 C32.014,26.008 32.014,5.999 32.014,5.999 C32.014,4.346 31.427,2.932 30.253,1.758 C29.078,0.584 27.665,-0.003 26.011,-0.003 C26.011,-0.003 6.003,-0.003 6.003,-0.003 Z" id="path-1" class="cls-2" fill-rule="evenodd"/>
</svg>
