<svg id="Layer_1" xmlns="http://www.w3.org/2000/svg" xmlns:xlink="http://www.w3.org/1999/xlink" width="22" height="22" viewBox="0 0 22 22"><style>.st0{clip-path:url(#SVGID_2_);fill:#fff}.st1,.st2{clip-path:url(#SVGID_4_);fill:#e61b22}.st2{clip-path:url(#SVGID_6_)}.st3{clip-path:url(#SVGID_8_);fill:#ffcd0c}</style><defs><path id="SVGID_1_" d="M0 0h22v22H0z"/></defs><clipPath id="SVGID_2_"><use xlink:href="#SVGID_1_" overflow="visible"/></clipPath><path class="st0" d="M10.7 0C4.8.2.2 4.9 0 10.7V22h11c6 0 10.8-4.8 11-10.7V0H10.7z"/><defs><path id="SVGID_3_" d="M16.3 0h-5.6C4.8.2.2 4.9 0 10.7V22h11c6 0 10.8-4.8 11-10.7V0h-5.7z"/></defs><clipPath id="SVGID_4_"><use xlink:href="#SVGID_3_" overflow="visible"/></clipPath><path class="st1" d="M-.6-.1h33.1v5.5H-.6z"/><defs><path id="SVGID_5_" d="M16.3 0h-5.6C4.8.2.2 4.9 0 10.7V22h11c6 0 10.8-4.8 11-10.7V0h-5.7z"/></defs><clipPath id="SVGID_6_"><use xlink:href="#SVGID_5_" overflow="visible"/></clipPath><path class="st2" d="M-.6 16.5h33.1V22H-.6z"/><defs><path id="SVGID_7_" d="M16.3 0h-5.6C4.8.2.2 4.9 0 10.7V22h11c6 0 10.8-4.8 11-10.7V0h-5.7z"/></defs><clipPath id="SVGID_8_"><use xlink:href="#SVGID_7_" overflow="visible"/></clipPath><path class="st3" d="M-.6 5.4h33.1v11.1H-.6z"/></svg>