<svg xmlns="http://www.w3.org/2000/svg" width="32" height="32" version="1"><circle cx="16" cy="16" r="16" fill="#55ACEE" fill-rule="evenodd" clip-rule="evenodd"/><path fill="#FFF" d="M26 9.9c-.72.32-1.5.53-2.35.63.85-.5 1.5-1.3 1.8-2.23-.78.46-1.66.8-2.6.98-.74-.78-1.8-1.28-3-1.28-2.26 0-4.1 1.8-4.1 4.04 0 .32.04.63.1.93-3.4-.18-6.43-1.78-8.45-4.23-.36.6-.56 1.3-.56 2.03 0 1.4.72 2.64 1.82 3.37-.67-.03-1.3-.2-1.85-.5v.04c0 1.96 1.42 3.6 3.3 3.97-.34.1-.7.14-1.08.14-.27 0-.52-.04-.77-.1.52 1.62 2.03 2.8 3.83 2.82-1.4 1.08-3.18 1.73-5.1 1.73-.33 0-.66-.02-.98-.06 1.82 1.14 3.98 1.8 6.3 1.8 7.55 0 11.68-6.15 11.68-11.5 0-.16 0-.34-.02-.5.8-.58 1.5-1.3 2.05-2.1z"/></svg>