<svg xmlns="http://www.w3.org/2000/svg" viewBox="0 0 58 58" width="512" height="512"><g fill="#FFF"><path d="M32 0a22.44 22.44 0 0 0-3.015.21A22.385 22.385 0 0 0 26 0C18.638 0 11.999 3.571 7.34 9.264c-.047.042-.081.092-.119.142a29.442 29.442 0 0 0-3.793 6.126 1.128 1.128 0 0 0-.068.15 31.21 31.21 0 0 0-1.76 4.897 1.002 1.002 0 0 0-.078.31A32.611 32.611 0 0 0 .5 29c0 4.404.872 8.579 2.423 12.321.014.04.027.078.046.116.93 2.218 2.1 4.28 3.473 6.145.035.048.064.099.107.14a27.258 27.258 0 0 0 4.74 4.942c.05.055.11.096.172.139C15.588 56.075 20.599 58 26 58c.972 0 1.953-.072 2.985-.21.99.134 1.994.21 3.015.21 14.061 0 25.5-13.009 25.5-29S46.061 0 32 0zM21.44 2.614c-.331.172-.658.352-.981.539-.181.105-.363.206-.541.316-.277.17-.548.35-.818.531h-1.925c1.462-.684 2.988-1.223 4.579-1.558-.107.053-.208.117-.314.172zM11.36 46H7.774a27.639 27.639 0 0 1-2.345-4h3.788c.157.354.318.705.487 1.051.073.149.149.296.225.444.205.402.417.797.638 1.186.082.145.161.292.246.436.176.299.361.591.547.883zM4.968 17h3.827c-.175.437-.341.879-.498 1.327-.043.124-.087.247-.129.371-.144.43-.278.864-.405 1.302H3.857c.318-1.031.69-2.031 1.111-3zM2.5 29c0-.674.036-1.338.078-2h3.987l-.002.048A34.06 34.06 0 0 0 6.5 29c0 .335.012.667.022 1H2.539c-.011-.334-.039-.663-.039-1zm4.136 3c.038.421.087.839.141 1.255l.01.092c.074.556.164 1.107.265 1.653H3.108a30.561 30.561 0 0 1-.448-3h3.976zm.62-10c-.026.118-.048.238-.072.356-.027.132-.055.263-.081.395-.122.627-.23 1.26-.315 1.902l-.01.092c-.012.085-.019.17-.03.255H2.779c.132-1.018.299-2.022.528-3h3.949zm.239 15c.031.122.06.246.092.367l.034.134c.165.609.35 1.208.548 1.8.042.125.086.247.129.371.037.11.074.22.113.328H4.558a29.312 29.312 0 0 1-.983-3h3.92zm3.317-24.116c-.084.143-.164.291-.246.436a29.27 29.27 0 0 0-.638 1.186c-.075.148-.152.294-.225.444l-.025.05H5.929a27.214 27.214 0 0 1 2.596-4h3.503c-.122.175-.245.349-.364.527-.295.443-.579.895-.852 1.357zM13.732 6h2.762a27 27 0 0 0-.737.662c-.201.19-.396.387-.592.584-.198.199-.394.401-.586.606-.185.197-.37.393-.55.596-.16.18-.313.367-.468.552h-3.302a24.189 24.189 0 0 1 3.473-3zM9.324 48h3.432c.113.148.225.296.341.441.302.38.613.75.932 1.111.179.203.365.399.55.596.193.206.389.408.588.607.08.08.156.166.237.245h-3.008a24.772 24.772 0 0 1-3.072-3zm12.429 7.558c-2.293-.483-4.46-1.369-6.47-2.558h2.419c.128.099.26.192.389.288.207.154.414.309.625.456.393.274.794.537 1.201.787.178.109.36.211.541.316.323.187.65.367.981.539.107.055.208.119.314.172zM32 56c-.795 0-1.58-.047-2.354-.136l-.387-.054-.16-.023a20.436 20.436 0 0 1-1.029-.172l-.085-.018a20.022 20.022 0 0 1-.984-.219l-.147-.039c-.303-.078-.605-.16-.903-.251-.091-.028-.182-.06-.273-.089a19.923 19.923 0 0 1-.76-.255c-.204-.074-.405-.156-.606-.236-.137-.054-.276-.105-.411-.162-5.377-2.275-9.836-6.748-12.549-12.466-.025-.052-.048-.107-.072-.159a29.664 29.664 0 0 1-.421-.943c-.054-.127-.104-.256-.156-.384a27.074 27.074 0 0 1-.295-.749c-.061-.162-.118-.327-.176-.491a25.158 25.158 0 0 1-.23-.67c-.06-.184-.117-.37-.174-.555a27.345 27.345 0 0 1-.504-1.857 29.832 29.832 0 0 1-.381-1.867 28.857 28.857 0 0 1-.104-.666c-.03-.202-.061-.403-.087-.607-.031-.24-.055-.483-.08-.725-.02-.189-.042-.377-.058-.567-.024-.278-.04-.558-.056-.839-.009-.158-.022-.314-.029-.472-.018-.44-.029-.883-.029-1.329s.011-.889.029-1.33c.007-.158.02-.315.029-.472.016-.28.032-.561.056-.839.016-.19.038-.378.058-.567.025-.242.05-.484.08-.725.026-.203.057-.405.087-.607a24.854 24.854 0 0 1 .218-1.283 29.832 29.832 0 0 1 .423-1.881 28.492 28.492 0 0 1 .752-2.453c.058-.164.115-.328.176-.49.095-.252.194-.501.295-.749.052-.128.102-.257.156-.384.135-.318.276-.632.421-.943.025-.053.047-.107.072-.159 2.713-5.718 7.172-10.19 12.549-12.466.136-.057.274-.108.411-.162.201-.08.402-.162.606-.236.251-.091.505-.173.76-.255.091-.029.181-.061.273-.089.298-.091.6-.174.903-.251.048-.011.097-.026.146-.038.325-.081.653-.153.984-.219l.085-.018a20.436 20.436 0 0 1 1.189-.195l.387-.054C30.42 2.047 31.205 2 32 2c12.958 0 23.5 12.112 23.5 27S44.958 56 32 56z"/><path d="M14.167 29c0-.629.025-1.261.074-1.879a1 1 0 0 0-1.994-.158c-.053.669-.08 1.355-.08 2.037v.021c0 .552.448.989 1 .989s1-.458 1-1.01zM49.134 23.292a1 1 0 1 0 1.94-.488 24.511 24.511 0 0 0-.587-1.98 1 1 0 0 0-1.892.648c.203.593.384 1.206.539 1.82zM45.022 43.019c-.4.492-.823.963-1.257 1.402a1 1 0 1 0 1.42 1.408c.481-.485.948-1.006 1.389-1.548a1 1 0 1 0-1.552-1.262zM14.856 34.669a1 1 0 1 0-1.941.483c.166.667.362 1.334.583 1.982a1 1 0 1 0 1.893-.645 22.915 22.915 0 0 1-.535-1.82zM41.858 9.449a18.784 18.784 0 0 0-1.812-1.043 1 1 0 0 0-.901 1.785c.553.279 1.098.593 1.621.934a1 1 0 0 0 1.092-1.676zM39.254 47.753c-.556.285-1.13.54-1.706.757a.999.999 0 1 0 .706 1.871 18.466 18.466 0 0 0 1.914-.849 1 1 0 1 0-.914-1.779zM47.73 15.277a22.055 22.055 0 0 0-1.243-1.663 1 1 0 1 0-1.544 1.272c.396.481.776.99 1.13 1.512a.997.997 0 0 0 1.389.267.998.998 0 0 0 .268-1.388zM50.833 27.968c-.552 0-1 .48-1 1.032 0 .613-.024 1.232-.071 1.838a1 1 0 1 0 1.994.154c.051-.658.077-1.328.077-1.993v-.065c0-.551-.447-.966-1-.966zM49.901 35.782a1.001 1.001 0 0 0-1.267.629 22.431 22.431 0 0 1-.681 1.769 1 1 0 1 0 1.834.798c.273-.627.523-1.277.743-1.93a.998.998 0 0 0-.629-1.266zM34.049 6.595A17.767 17.767 0 0 0 32 6.476h-.042c-.552 0-.979.448-.979 1s.469 1 1.021 1c.605 0 1.217.035 1.819.105a1 1 0 0 0 .23-1.986zM17.903 41.568a.999.999 0 1 0-1.658 1.118c.388.575.805 1.135 1.239 1.665a1 1 0 1 0 1.547-1.269c-.395-.48-.775-.99-1.128-1.514zM15.547 18.465a1 1 0 0 0-1.317.516 24.607 24.607 0 0 0-.747 1.928 1.002 1.002 0 0 0 .947 1.322 1 1 0 0 0 .947-.679c.202-.597.433-1.192.685-1.77a.998.998 0 0 0-.515-1.317zM32 49.524a15.72 15.72 0 0 1-1.858-.11 1.008 1.008 0 0 0-1.112.875 1.001 1.001 0 0 0 .875 1.112c.69.082 1.396.124 2.096.124h.086c.552 0 .957-.448.957-1s-.492-1.001-1.044-1.001zM18.846 12.139c-.481.485-.95 1.004-1.391 1.545a1 1 0 1 0 1.549 1.266 19.26 19.26 0 0 1 1.261-1.4 1.002 1.002 0 0 0-.004-1.415 1.003 1.003 0 0 0-1.415.004zM25.789 7.602c-.648.243-1.293.527-1.916.845a1 1 0 1 0 .908 1.782 16.657 16.657 0 0 1 1.708-.753 1 1 0 0 0-.7-1.874zM24.819 47.791a17.071 17.071 0 0 1-1.619-.938 1 1 0 1 0-1.096 1.673c.585.383 1.194.736 1.809 1.048a1.001 1.001 0 0 0 1.345-.439 1 1 0 0 0-.439-1.344z"/></g></svg>