<svg xmlns="http://www.w3.org/2000/svg" preserveAspectRatio="xMidYMid" width="32" height="33" viewBox="0 0 32 33"><defs><style>.cls-2{fill:#000;filter:url(#color-overlay-1)}</style><filter id="color-overlay-1" filterUnits="userSpaceOnUse"><feFlood flood-color="#00aded" flood-opacity="1"/><feComposite operator="in" in2="SourceGraphic"/><feBlend in2="SourceGraphic" result="colorOverlay"/></filter></defs><path d="M6.003-.003c-1.654 0-3.068.587-4.242 1.761S0 4.346 0 5.999v20.009c0 1.654.587 3.067 1.761 4.241 1.174 1.174 2.588 1.761 4.242 1.761h11.088V19.609h-4.169v-4.835h4.169V11.21c0-2.029.566-3.599 1.698-4.711 1.133-1.111 2.644-1.667 4.534-1.667 1.597 0 2.834.062 3.71.187v4.315l-2.543.021c-.945 0-1.581.195-1.907.583-.327.389-.49.973-.49 1.751v3.085h4.773l-.625 4.835h-4.148V32.01h3.918c1.654 0 3.067-.587 4.242-1.761 1.174-1.174 1.761-2.587 1.761-4.241V5.999c0-1.653-.587-3.067-1.761-4.241C29.078.584 27.665-.003 26.011-.003H6.003z" id="path-1" class="cls-2" fill-rule="evenodd"/></svg>