<svg id="Layer_1" xmlns="http://www.w3.org/2000/svg" xmlns:xlink="http://www.w3.org/1999/xlink" width="22" height="22" viewBox="0 0 22 22"><style>.st0{clip-path:url(#SVGID_2_);fill:#fff}.st1{clip-path:url(#SVGID_4_);fill:#ed1c24}.st2{clip-path:url(#SVGID_6_);fill:#1a2f7c}.st3{clip-path:url(#SVGID_8_);fill:#ed1c24}.st4,.st5{clip-path:url(#SVGID_10_);fill:#1a2f7c}.st5{clip-path:url(#SVGID_12_)}.st6{clip-path:url(#SVGID_14_);fill:#ed1c24}.st7,.st8{clip-path:url(#SVGID_16_);fill:#1a2f7c}.st8{clip-path:url(#SVGID_18_)}.st9{clip-path:url(#SVGID_20_);fill:#ed1c24}.st10,.st11{clip-path:url(#SVGID_22_);fill:#1a2f7c}.st11{clip-path:url(#SVGID_24_)}.st12{clip-path:url(#SVGID_26_);fill:#ed1c24}.st13,.st14{clip-path:url(#SVGID_28_);fill:#1a2f7c}.st14{clip-path:url(#SVGID_30_)}.st15{clip-path:url(#SVGID_32_)}.st15,.st16,.st17{fill:#1a2f7c}.st16{clip-path:url(#SVGID_34_)}.st17{clip-path:url(#SVGID_36_)}</style><defs><path id="SVGID_1_" d="M0 0h22v22H0z"/></defs><clipPath id="SVGID_2_"><use xlink:href="#SVGID_1_" overflow="visible"/></clipPath><path class="st0" d="M10.7 0C4.8.2.2 4.9 0 10.7V22h11c6 0 10.8-4.8 11-10.7V0H10.7z"/><defs><path id="SVGID_3_" d="M16.3 0h-5.6C4.8.2.2 4.9 0 10.7V22h11c6 0 10.8-4.8 11-10.7V0h-5.7z"/></defs><clipPath id="SVGID_4_"><use xlink:href="#SVGID_3_" overflow="visible"/></clipPath><path class="st1" d="M28 9.8H12.8V-4.3H9.4V9.8H-5.9v3.7H9.4v15.9h3.4V13.5H28z"/><defs><path id="SVGID_5_" d="M16.3 0h-5.6C4.8.2.2 4.9 0 10.7V22h11c6 0 10.8-4.8 11-10.7V0h-5.7z"/></defs><clipPath id="SVGID_6_"><use xlink:href="#SVGID_5_" overflow="visible"/></clipPath><path class="st2" d="M8.3 2.4V8L-2 2.4z"/><defs><path id="SVGID_7_" d="M16.3 0h-5.6C4.8.2.2 4.9 0 10.7V22h11c6 0 10.8-4.8 11-10.7V0h-5.7z"/></defs><clipPath id="SVGID_8_"><use xlink:href="#SVGID_7_" overflow="visible"/></clipPath><path class="st3" d="M-5.9 2.4v1.4l8.8 4.8h2.5z"/><defs><path id="SVGID_9_" d="M16.3 0h-5.6C4.8.2.2 4.9 0 10.7V22h11c6 0 10.8-4.8 11-10.7V0h-5.7z"/></defs><clipPath id="SVGID_10_"><use xlink:href="#SVGID_9_" overflow="visible"/></clipPath><path class="st4" d="M-5.9 4.5v4.1h7.6z"/><defs><path id="SVGID_11_" d="M16.3 0h-5.6C4.8.2.2 4.9 0 10.7V22h11c6 0 10.8-4.8 11-10.7V0h-5.7z"/></defs><clipPath id="SVGID_12_"><use xlink:href="#SVGID_11_" overflow="visible"/></clipPath><path class="st5" d="M13.9 2.4V8l10.3-5.6z"/><defs><path id="SVGID_13_" d="M16.3 0h-5.6C4.8.2.2 4.9 0 10.7V22h11c6 0 10.8-4.8 11-10.7V0h-5.7z"/></defs><clipPath id="SVGID_14_"><use xlink:href="#SVGID_13_" overflow="visible"/></clipPath><path class="st6" d="M25.5 2.4H28L16.8 8.6h-2.6z"/><defs><path id="SVGID_15_" d="M16.3 0h-5.6C4.8.2.2 4.9 0 10.7V22h11c6 0 10.8-4.8 11-10.7V0h-5.7z"/></defs><clipPath id="SVGID_16_"><use xlink:href="#SVGID_15_" overflow="visible"/></clipPath><path class="st7" d="M28 4.5v4.1h-7.5z"/><defs><path id="SVGID_17_" d="M16.3 0h-5.6C4.8.2.2 4.9 0 10.7V22h11c6 0 10.8-4.8 11-10.7V0h-5.7z"/></defs><clipPath id="SVGID_18_"><use xlink:href="#SVGID_17_" overflow="visible"/></clipPath><path class="st8" d="M8.3 15.3L-2 20.9H8.3"/><defs><path id="SVGID_19_" d="M16.3 0h-5.6C4.8.2.2 4.9 0 10.7V22h11c6 0 10.8-4.8 11-10.7V0h-5.7z"/></defs><clipPath id="SVGID_20_"><use xlink:href="#SVGID_19_" overflow="visible"/></clipPath><path class="st9" d="M7.9 14.7l-11.3 6.2h-2.5l11.2-6.2"/><defs><path id="SVGID_21_" d="M16.3 0h-5.6C4.8.2.2 4.9 0 10.7V22h11c6 0 10.8-4.8 11-10.7V0h-5.7z"/></defs><clipPath id="SVGID_22_"><use xlink:href="#SVGID_21_" overflow="visible"/></clipPath><path class="st10" d="M1.7 14.7l-7.6 4.1v-4.1"/><defs><path id="SVGID_23_" d="M16.3 0h-5.6C4.8.2.2 4.9 0 10.7V22h11c6 0 10.8-4.8 11-10.7V0h-5.7z"/></defs><clipPath id="SVGID_24_"><use xlink:href="#SVGID_23_" overflow="visible"/></clipPath><path class="st11" d="M13.8 20.9v-5.6l10.3 5.6z"/><defs><path id="SVGID_25_" d="M16.3 0h-5.6C4.8.2.2 4.9 0 10.7V22h11c6 0 10.8-4.8 11-10.7V0h-5.7z"/></defs><clipPath id="SVGID_26_"><use xlink:href="#SVGID_25_" overflow="visible"/></clipPath><path class="st12" d="M28 20.9v-1.4l-8.8-4.8h-2.5z"/><defs><path id="SVGID_27_" d="M16.3 0h-5.6C4.8.2.2 4.9 0 10.7V22h11c6 0 10.8-4.8 11-10.7V0h-5.7z"/></defs><clipPath id="SVGID_28_"><use xlink:href="#SVGID_27_" overflow="visible"/></clipPath><path class="st13" d="M28 18.8v-4.1h-7.5z"/><defs><path id="SVGID_29_" d="M16.3 0h-5.6C4.8.2.2 4.9 0 10.7V22h11c6 0 10.8-4.8 11-10.7V0h-5.7z"/></defs><clipPath id="SVGID_30_"><use xlink:href="#SVGID_29_" overflow="visible"/></clipPath><path class="st14" d="M-.5 20.3h8.8v2.6H-.5z"/><defs><path id="SVGID_31_" d="M16.3 0h-5.6C4.8.2.2 4.9 0 10.7V22h11c6 0 10.8-4.8 11-10.7V0h-5.7z"/></defs><clipPath id="SVGID_32_"><use xlink:href="#SVGID_31_" overflow="visible"/></clipPath><path class="st15" d="M.1.1h8.2v2.6H.1z"/><defs><path id="SVGID_33_" d="M16.3 0h-5.6C4.8.2.2 4.9 0 10.7V22h11c6 0 10.8-4.8 11-10.7V0h-5.7z"/></defs><clipPath id="SVGID_34_"><use xlink:href="#SVGID_33_" overflow="visible"/></clipPath><path class="st16" d="M13.9.1h12.7v2.6H13.9z"/><defs><path id="SVGID_35_" d="M16.3 0h-5.6C4.8.2.2 4.9 0 10.7V22h11c6 0 10.8-4.8 11-10.7V0h-5.7z"/></defs><clipPath id="SVGID_36_"><use xlink:href="#SVGID_35_" overflow="visible"/></clipPath><path class="st17" d="M13.8 20.3H22v2.6h-8.2z"/></svg>